# xmcd CD database file
# Copyright (C) 1993-1998 Ti Kan
#
# Track frame offsets:
#  150
#  17974
#  30830
#  48909
#  67454
#  88334
#  102820
#  118463
#  135247
#  156461
#  172347
#  186706
#  206044
#  223939
#  242385
#  262080
#  273940
#  291450
#  309221
#
# Disc length: 4379 seconds
#
# Revision: 1
# Processed by: cddbd v1.4b41PL1 Copyright (c) Steve Scherf et al.
# Submitted via: CDWizzard Release:4.35
#
DISCID=31111913
DTITLE=Cher - The best of Cher
DYEAR=1900
DGENRE=
TTITLE0=Walking In Memphis
TTITLE1=The Shoop Shoop Song
TTITLE2=If I Could Turn Back Time
TTITLE3=Just Like Jesse James
TTITLE4=It's A Man's Man's Man's World 
TTITLE5=I Got You Babe (Sony and Cher)
TTITLE6=Dark Lady
TTITLE7=I Found Someone
TTITLE8=Love and Understanding
TTITLE9=He's Ain't Heavy, He's My Brother
TTITLE10=Oh No Not My Baby
TTITLE11=Heart Of Stone
TTITLE12=Save Up All Your Tears
TTITLE13=Whenever You're Near
TTITLE14=Dead Ringer For Love (with Meat Loaf)
TTITLE15=Gypsys Tramps and Thieves
TTITLE16=Bang-Bang
TTITLE17=Somebody Somewhere
TTITLE18=Love Hurts
EXTD=
EXTT0=
EXTT1=
EXTT2=
EXTT3=
EXTT4=
EXTT5=
EXTT6=
EXTT7=
EXTT8=
EXTT9=
EXTT10=
EXTT11=
EXTT12=
EXTT13=
EXTT14=
EXTT15=
EXTT16=
EXTT17=
EXTT18=
PLAYORDER=
